<?xml version="1.0" encoding="UTF-8"?>
<svg width="17px" height="20px" viewBox="0 0 17 20" version="1.1" xmlns="http://www.w3.org/2000/svg" xmlns:xlink="http://www.w3.org/1999/xlink">
    <!-- Generator: Sketch 49.3 (51167) - http://www.bohemiancoding.com/sketch -->
    <title>sc@3x</title>
    <desc>Created with Sketch.</desc>
    <defs></defs>
    <g id="Page-1" stroke="none" stroke-width="1" fill="none" fill-rule="evenodd">
        <g id="11搜索空1" transform="translate(-343.000000, -135.000000)" fill="#7F7F7F" fill-rule="nonzero">
            <g id="sc" transform="translate(343.000000, 135.000000)">
                <path d="M11.333308,7.66662938 L12.277801,7.66662938 L12.277801,14.5555282 L11.333308,14.5555282 L11.333308,7.66662938 Z M8.97220849,16.5555282 L8.97220849,6.66662938 L8.02775348,6.66662938 L8.02775348,16.5555282 L8.49996197,16.5555282 L8.97220849,16.5555282 Z M4.72219898,7.66662938 L5.66669202,7.66662938 L5.66669202,14.5555282 L4.72219898,14.5555282 L4.72219898,7.66662938 Z M12.277801,3.33332588 L12.277801,1.11110117 C12.277801,0.50021588 11.8530168,0 11.333308,0 L5.66667301,0 C5.14696414,0 4.72219898,0.50021588 4.72219898,1.11110117 L4.72219898,3.33332588 L0,3.33332588 L0,4.44444942 L1.88892903,4.44444942 L1.88892903,18.8888765 C1.88892903,19.4998065 2.31361813,20 2.83334601,20 L14.166654,20 C14.6863819,20 15.111147,19.4997841 15.111147,18.8888765 L15.111147,4.44442704 L17,4.44442704 L17,3.33330351 L12.277801,3.33330351 L12.277801,3.33332588 Z M5.66667301,1.11110117 L11.333308,1.11110117 L11.333308,3.33332588 L5.66667301,3.33332588 L5.66667301,1.11110117 Z M14.166635,18.8888541 L2.83332699,18.8888541 L2.83332699,4.44442704 L14.166635,4.44442704 L14.166635,18.8888541 Z" id="Shape"></path>
            </g>
        </g>
    </g>
</svg>